<svg width="147.000000" height="36.000000" viewBox="0 0 147 36" fill="none" xmlns="http://www.w3.org/2000/svg" xmlns:xlink="http://www.w3.org/1999/xlink">
	<desc>
			Created with Pixso.
	</desc>
	<defs>
		<clipPath id="clip210_3468">
			<rect id="logo" rx="0.000000" width="146.000000" height="35.000000" transform="translate(0.500000 0.500000)" fill="white" fill-opacity="0"/>
		</clipPath>
	</defs>
	<rect id="logo" rx="0.000000" width="146.000000" height="35.000000" transform="translate(0.500000 0.500000)" fill="#FFFFFF" fill-opacity="0"/>
	<g clip-path="url(#clip210_3468)">
		<path id="Vector" d="M7.72 30.43C6.18 28.99 4.95 27.25 4.11 25.32C3.27 23.39 2.84 21.31 2.84 19.21C2.83 17.25 3.21 15.32 3.94 13.5C8.98 12.17 13.71 14.42 17.54 17.71L17.54 17.73C18.33 18.59 17.89 19.29 16.92 19.59C11.39 21.87 8.1 25.36 7.7 30.43L7.72 30.43Z" fill="#0091D3" fill-opacity="1.000000" fill-rule="evenodd"/>
		<path id="Vector" d="M21.07 3.76C23.19 4.04 25.22 4.74 27.06 5.82C28.9 6.89 30.51 8.32 31.79 10.03C32.97 11.6 33.83 13.38 34.34 15.28C31.07 19.24 25.88 20.13 20.8 19.66L20.78 19.66C19.62 19.42 19.55 18.6 20.15 17.8C23.25 12.79 23.81 8.08 21.07 3.76L21.07 3.76Z" fill="#FFCC00" fill-opacity="1.000000" fill-rule="evenodd"/>
		<path id="Vector" d="M4.46 12.36C5.42 10.47 6.74 8.79 8.37 7.41C9.99 6.04 11.87 5.01 13.89 4.38C15.8 3.77 17.8 3.52 19.8 3.64C22.65 7.9 21.91 12.98 19.89 17.54L19.89 17.56C19.29 18.56 18.47 18.37 17.88 17.56C13.94 13.14 9.52 11.17 4.46 12.37L4.46 12.36Z" fill="#FFCC00" fill-opacity="1.000000" fill-rule="evenodd"/>
		<path id="Vector" d="M26.35 32.98C24.45 33.97 22.37 34.57 20.23 34.75C18.09 34.94 15.94 34.7 13.89 34.05C11.99 33.45 10.22 32.5 8.67 31.26C8.93 26.17 12.59 22.49 16.97 19.96L17 19.96C18.08 19.49 18.63 20.12 18.63 21.11C19.14 26.93 21.53 31.06 26.35 33L26.35 32.98Z" fill="#0091D3" fill-opacity="1.000000" fill-rule="evenodd"/>
		<path id="Vector" d="M34.6 16.51C34.98 18.57 34.92 20.69 34.44 22.73C33.95 24.78 33.05 26.7 31.79 28.38C30.61 29.96 29.14 31.32 27.45 32.36C22.57 30.55 20.11 26.02 18.99 21.17L18.99 21.14C18.87 19.99 19.66 19.67 20.62 19.99C26.47 21.31 31.24 20.38 34.61 16.51L34.6 16.51Z" fill="#FFCC00" fill-opacity="1.000000" fill-rule="evenodd"/>
		<path id="Vector" d="M18.84 -5.73e-6C19.63 0 20.42 0.04 21.2 0.13C23.17 2.8 24.03 5.59 23.92 8.5C23.82 11.26 22.84 14.11 21.1 17.05C20.95 17.31 20.77 17.56 20.64 17.84C20.5 18.08 20.44 18.37 20.47 18.65C20.5 18.75 20.55 18.84 20.63 18.92C20.7 18.99 20.79 19.05 20.88 19.08C21.23 19.2 21.59 19.26 21.96 19.26C26.16 19.55 30.36 19 33.68 16.84C35.09 15.92 36.31 14.73 37.25 13.34L37.49 12.97C37.78 13.79 38.01 14.64 38.18 15.49C36.38 17.97 33.8 19.77 30.84 20.59C28.12 21.33 25.03 21.33 21.62 20.62C21.32 20.56 21.01 20.48 20.71 20.44C20.42 20.38 20.12 20.42 19.86 20.54C19.77 20.59 19.7 20.67 19.65 20.76C19.6 20.85 19.57 20.95 19.57 21.05C19.55 21.41 19.61 21.76 19.73 22.1C20.73 26.08 22.58 29.8 25.71 32.22C26.36 32.72 27.06 33.16 27.79 33.52C28.57 33.91 29.39 34.22 30.23 34.45L30.64 34.56C29.93 35.08 29.18 35.55 28.41 35.98C25.21 34.95 22.83 33.18 21.16 30.76C19.58 28.48 18.65 25.6 18.28 22.24C18.25 21.93 18.24 21.63 18.18 21.33C18.14 21.05 18.01 20.78 17.81 20.57C17.73 20.51 17.63 20.47 17.53 20.45C17.43 20.43 17.32 20.44 17.22 20.47C16.87 20.56 16.54 20.72 16.24 20.94C12.67 23.1 9.6 25.96 8.22 29.61C7.93 30.37 7.72 31.15 7.59 31.94C7.45 32.79 7.4 33.64 7.44 34.49L7.44 34.91C6.72 34.41 6.02 33.86 5.37 33.27C5.32 30.25 6.33 27.3 8.22 24.95C9.96 22.78 12.47 21.03 15.65 19.65C15.93 19.52 16.23 19.41 16.49 19.28C16.76 19.16 16.98 18.96 17.13 18.71C17.16 18.61 17.17 18.51 17.16 18.41C17.15 18.31 17.11 18.21 17.05 18.13C16.85 17.84 16.59 17.58 16.29 17.37C13.08 14.73 9.34 12.77 5.35 12.61C4.52 12.58 3.69 12.63 2.88 12.75C2.01 12.89 1.17 13.1 0.35 13.4L-0.06 13.55C0.2 12.72 0.52 11.91 0.89 11.12C3.82 10.14 6.99 10.16 9.9 11.18C12.56 12.14 15.04 13.92 17.37 16.44C17.57 16.67 17.78 16.89 18 17.1C18.2 17.32 18.46 17.46 18.74 17.52C18.84 17.52 18.95 17.5 19.04 17.45C19.13 17.41 19.22 17.35 19.28 17.27C19.51 16.99 19.68 16.67 19.79 16.33C21.37 12.53 22.13 8.46 21.05 4.71C20.83 3.93 20.52 3.18 20.15 2.46C19.75 1.7 19.28 0.99 18.74 0.32L18.47 -0.01L18.77 -0.01L18.84 -5.73e-6Z" fill="#C71157" fill-opacity="1.000000" fill-rule="evenodd"/>
		<path id="Vector" d="M137.08 22.24C137.26 22.24 137.44 22.21 137.61 22.14C137.77 22.07 137.92 21.96 138.05 21.83C138.18 21.7 138.28 21.55 138.34 21.38C138.41 21.21 138.44 21.03 138.43 20.85L138.43 16.91L140.48 19.49C140.59 19.6 140.72 19.68 140.86 19.74C141 19.8 141.16 19.83 141.31 19.83C141.47 19.83 141.62 19.8 141.76 19.74C141.9 19.68 142.03 19.6 142.14 19.49L144.19 16.91L144.19 20.86C144.19 21.22 144.33 21.57 144.59 21.83C144.85 22.08 145.19 22.23 145.56 22.23C145.92 22.23 146.27 22.08 146.52 21.83C146.78 21.57 146.92 21.22 146.92 20.86L146.92 13.13C146.93 12.95 146.9 12.77 146.83 12.6C146.76 12.44 146.66 12.28 146.54 12.15C146.41 12.02 146.26 11.92 146.09 11.85C145.92 11.78 145.74 11.75 145.56 11.75C145.35 11.75 145.13 11.81 144.94 11.91C144.75 12 144.58 12.14 144.45 12.32L141.33 16.41L138.21 12.32C138.08 12.14 137.92 12 137.72 11.91C137.53 11.81 137.32 11.75 137.11 11.75C136.92 11.75 136.74 11.78 136.58 11.85C136.41 11.92 136.25 12.02 136.13 12.15C136 12.27 135.89 12.43 135.83 12.6C135.76 12.76 135.73 12.94 135.73 13.13L135.73 20.84C135.72 21.02 135.76 21.21 135.82 21.38C135.89 21.55 135.99 21.7 136.12 21.83C136.25 21.96 136.4 22.06 136.57 22.13C136.74 22.2 136.92 22.24 137.11 22.23L137.08 22.24ZM128.11 14.24C129.59 14.24 130.7 15.42 130.7 16.99C130.71 17.34 130.66 17.69 130.54 18.02C130.42 18.35 130.23 18.65 129.99 18.9C129.75 19.16 129.45 19.36 129.13 19.5C128.81 19.63 128.46 19.71 128.11 19.71C126.61 19.71 125.53 18.57 125.53 16.99C125.53 15.42 126.59 14.25 128.09 14.25L128.11 14.24ZM128.11 11.75C127.43 11.75 126.74 11.88 126.11 12.14C125.47 12.4 124.89 12.79 124.41 13.27C123.92 13.76 123.53 14.33 123.27 14.97C123 15.6 122.87 16.28 122.86 16.97C122.86 17.66 123 18.34 123.26 18.97C123.52 19.61 123.9 20.19 124.39 20.67C124.88 21.16 125.45 21.55 126.09 21.81C126.72 22.08 127.4 22.21 128.09 22.21C128.8 22.24 129.5 22.13 130.16 21.88C130.82 21.63 131.42 21.25 131.93 20.76C132.44 20.27 132.84 19.69 133.12 19.04C133.39 18.39 133.54 17.7 133.54 16.99C133.54 16.29 133.4 15.59 133.13 14.94C132.85 14.29 132.45 13.71 131.94 13.22C131.44 12.73 130.84 12.35 130.18 12.09C129.52 11.84 128.82 11.72 128.11 11.75ZM113.36 11.75C113.18 11.74 112.99 11.78 112.83 11.84C112.66 11.91 112.5 12.01 112.37 12.14C112.25 12.27 112.14 12.42 112.08 12.59C112.01 12.76 111.98 12.94 111.98 13.13L111.98 20.84C111.97 21.03 112 21.21 112.06 21.38C112.13 21.56 112.23 21.72 112.36 21.85C112.48 21.99 112.64 22.09 112.81 22.17C112.98 22.24 113.16 22.28 113.35 22.28C113.53 22.28 113.72 22.24 113.89 22.17C114.06 22.09 114.21 21.99 114.34 21.85C114.47 21.72 114.57 21.56 114.63 21.38C114.7 21.21 114.72 21.03 114.72 20.84L114.72 13.13C114.72 12.95 114.69 12.77 114.63 12.6C114.56 12.43 114.46 12.27 114.33 12.14C114.2 12.01 114.05 11.91 113.88 11.84C113.71 11.77 113.53 11.74 113.34 11.75L113.36 11.75ZM120.85 20.14L118.03 16.62L120.58 13.92C120.83 13.68 120.98 13.34 120.99 12.99C120.99 12.66 120.85 12.34 120.62 12.11C120.39 11.88 120.07 11.75 119.74 11.75C119.56 11.74 119.39 11.78 119.23 11.85C119.07 11.92 118.92 12.02 118.81 12.15L115.63 15.58C115.34 15.84 115.17 16.2 115.14 16.59C115.16 16.95 115.3 17.29 115.55 17.56L118.97 21.79C119.08 21.94 119.22 22.05 119.39 22.13C119.55 22.21 119.74 22.24 119.92 22.23C120.09 22.23 120.25 22.2 120.4 22.14C120.56 22.08 120.69 21.99 120.81 21.87C120.93 21.75 121.02 21.61 121.08 21.46C121.15 21.31 121.18 21.15 121.18 20.98C121.17 20.67 121.05 20.37 120.85 20.14ZM104.91 13.96C105.19 13.94 105.47 13.98 105.73 14.07C105.99 14.17 106.23 14.31 106.44 14.5C106.64 14.69 106.8 14.92 106.91 15.18C107.03 15.43 107.08 15.7 107.08 15.98L102.52 15.98C102.83 14.75 103.72 13.96 104.91 13.96ZM104.98 11.75C104.29 11.74 103.6 11.87 102.96 12.13C102.32 12.39 101.74 12.77 101.26 13.26C100.77 13.75 100.39 14.34 100.13 14.98C99.88 15.62 99.75 16.3 99.77 16.99C99.77 19.99 102.1 22.23 105.26 22.23C106.39 22.25 107.5 21.92 108.44 21.3C108.65 21.2 108.82 21.04 108.94 20.85C109.06 20.65 109.13 20.43 109.13 20.2C109.13 20.05 109.11 19.91 109.05 19.77C109 19.64 108.92 19.51 108.81 19.41C108.71 19.31 108.59 19.22 108.45 19.17C108.32 19.12 108.17 19.09 108.02 19.09C107.82 19.1 107.61 19.16 107.44 19.27C106.81 19.67 106.09 19.88 105.35 19.89C103.88 19.89 102.86 19.16 102.54 17.91L108.25 17.91C109.14 17.91 109.75 17.36 109.75 16.51L109.75 16.45C109.74 13.74 107.71 11.75 104.98 11.75L104.98 11.75ZM96.12 11.97L90.97 11.97C90.78 11.97 90.6 12 90.43 12.07C90.26 12.14 90.1 12.25 89.97 12.38C89.84 12.51 89.74 12.66 89.67 12.83C89.6 13 89.57 13.19 89.57 13.37L89.57 14.36C89.57 17.93 88.83 19.2 87.75 19.76C87.28 20.05 86.91 20.27 86.91 20.92C86.91 21.08 86.95 21.24 87.01 21.39C87.07 21.53 87.16 21.67 87.28 21.78C87.39 21.89 87.53 21.98 87.68 22.04C87.83 22.1 87.99 22.14 88.15 22.13C88.41 22.13 88.68 22.08 88.92 21.97C91.19 21.02 92.28 18.79 92.28 15.19L92.28 14.28L94.8 14.28L94.8 20.84C94.8 21.2 94.94 21.54 95.19 21.8C95.45 22.05 95.79 22.2 96.15 22.2C96.51 22.2 96.86 22.05 97.11 21.8C97.37 21.54 97.51 21.2 97.51 20.84L97.51 13.38C97.51 13.19 97.48 13.01 97.41 12.84C97.34 12.67 97.24 12.52 97.11 12.39C96.99 12.26 96.83 12.16 96.66 12.09C96.5 12.02 96.31 11.98 96.13 11.98L96.12 11.97ZM81.41 13.96C81.69 13.94 81.97 13.98 82.23 14.07C82.5 14.16 82.74 14.31 82.94 14.5C83.15 14.69 83.31 14.92 83.42 15.18C83.53 15.43 83.59 15.71 83.59 15.99L79.02 15.99C79.33 14.75 80.22 13.96 81.41 13.96ZM81.48 11.75C80.79 11.74 80.1 11.87 79.46 12.13C78.82 12.39 78.24 12.77 77.75 13.26C77.27 13.75 76.89 14.34 76.63 14.98C76.37 15.62 76.25 16.3 76.27 16.99C76.27 19.99 78.6 22.23 81.76 22.23C82.89 22.25 84 21.92 84.94 21.3C85.14 21.2 85.32 21.04 85.44 20.85C85.56 20.65 85.63 20.43 85.63 20.2C85.63 20.05 85.61 19.91 85.55 19.77C85.5 19.64 85.42 19.51 85.31 19.41C85.21 19.31 85.09 19.22 84.95 19.17C84.81 19.12 84.67 19.09 84.52 19.09C84.31 19.1 84.11 19.16 83.93 19.27C83.31 19.66 82.58 19.86 81.85 19.86C80.37 19.86 79.35 19.12 79.03 17.88L84.74 17.88C85.64 17.88 86.25 17.33 86.25 16.48L86.25 16.42C86.24 13.74 84.21 11.75 81.48 11.75ZM69.54 22.23C69.73 22.24 69.91 22.2 70.08 22.13C70.25 22.06 70.4 21.96 70.53 21.83C70.66 21.7 70.76 21.55 70.83 21.38C70.89 21.21 70.92 21.02 70.92 20.84L70.92 11.11L74.1 11.11C74.27 11.11 74.43 11.08 74.58 11.02C74.73 10.96 74.87 10.87 74.99 10.76C75.11 10.64 75.2 10.5 75.26 10.35C75.32 10.2 75.36 10.04 75.36 9.88C75.36 9.71 75.33 9.55 75.27 9.39C75.21 9.24 75.11 9.1 75 8.99C74.88 8.87 74.74 8.78 74.59 8.72C74.43 8.66 74.27 8.63 74.1 8.64L65.01 8.64C64.84 8.64 64.68 8.66 64.52 8.72C64.37 8.78 64.23 8.87 64.11 8.99C63.99 9.1 63.9 9.24 63.84 9.4C63.78 9.55 63.75 9.71 63.75 9.88C63.75 10.04 63.78 10.2 63.84 10.35C63.91 10.51 64 10.64 64.12 10.76C64.23 10.87 64.37 10.96 64.53 11.02C64.68 11.08 64.84 11.11 65.01 11.11L68.19 11.11L68.19 20.85C68.18 21.03 68.21 21.21 68.28 21.38C68.34 21.55 68.44 21.7 68.57 21.83C68.69 21.96 68.85 22.07 69.01 22.14C69.18 22.21 69.36 22.24 69.54 22.24L69.54 22.23ZM56.84 20.11L52.36 14.93L56.39 10.58C56.52 10.46 56.62 10.32 56.69 10.16C56.76 10.01 56.79 9.84 56.8 9.67C56.8 9.33 56.67 9.01 56.44 8.77C56.21 8.54 55.89 8.4 55.56 8.39C55.37 8.39 55.19 8.43 55.02 8.5C54.85 8.58 54.69 8.69 54.57 8.84L49.75 14.04C49.52 14.27 49.39 14.58 49.38 14.91C49.39 15.24 49.52 15.57 49.75 15.82L54.82 21.68C54.95 21.85 55.11 21.99 55.31 22.09C55.5 22.18 55.71 22.24 55.92 22.24C56.26 22.23 56.58 22.09 56.82 21.85C57.06 21.61 57.2 21.29 57.2 20.95C57.19 20.63 57.06 20.34 56.84 20.12L56.84 20.11ZM47.46 8.39C47.27 8.39 47.09 8.42 46.92 8.49C46.75 8.56 46.6 8.66 46.47 8.79C46.34 8.92 46.24 9.08 46.17 9.25C46.11 9.42 46.08 9.6 46.08 9.79L46.08 20.84C46.07 21.03 46.1 21.21 46.17 21.39C46.23 21.56 46.33 21.72 46.46 21.86C46.58 21.99 46.74 22.1 46.91 22.17C47.08 22.24 47.26 22.28 47.45 22.28C47.63 22.28 47.82 22.24 47.99 22.17C48.16 22.1 48.31 21.99 48.44 21.86C48.57 21.72 48.67 21.56 48.73 21.39C48.8 21.21 48.83 21.03 48.82 20.84L48.82 9.79C48.82 9.61 48.79 9.43 48.72 9.26C48.66 9.09 48.56 8.94 48.43 8.81C48.3 8.68 48.15 8.57 47.99 8.5C47.82 8.43 47.64 8.4 47.46 8.4L47.46 8.39Z" fill="#C71157" fill-opacity="1.000000" fill-rule="nonzero"/>
		<path id="Vector" d="M144.79 30.48C144.38 30.48 144.14 30.29 144.14 29.98C144.14 29.68 144.36 29.52 144.77 29.52L145.75 29.52L145.75 29.58C145.75 29.7 145.72 29.82 145.67 29.94C145.62 30.05 145.55 30.15 145.46 30.24C145.37 30.32 145.27 30.38 145.15 30.43C145.04 30.47 144.91 30.49 144.79 30.48ZM145.02 26.62C144.42 26.59 143.83 26.79 143.37 27.18C143.29 27.24 143.23 27.32 143.19 27.4C143.14 27.49 143.12 27.58 143.11 27.68C143.11 27.75 143.13 27.81 143.16 27.88C143.18 27.94 143.22 28 143.27 28.04C143.32 28.09 143.38 28.13 143.45 28.15C143.51 28.18 143.58 28.19 143.65 28.19C143.78 28.18 143.91 28.13 144.02 28.04C144.25 27.82 144.57 27.7 144.89 27.7C145 27.68 145.12 27.68 145.23 27.72C145.34 27.75 145.44 27.81 145.52 27.89C145.6 27.96 145.67 28.06 145.71 28.17C145.75 28.27 145.76 28.39 145.75 28.5L145.75 28.7L144.61 28.7C143.53 28.7 142.88 29.21 142.88 30.03C142.88 30.85 143.52 31.4 144.46 31.4C144.95 31.41 145.43 31.24 145.8 30.91C145.82 31.04 145.9 31.17 146.01 31.25C146.12 31.34 146.26 31.39 146.4 31.38C146.48 31.39 146.56 31.37 146.63 31.34C146.71 31.31 146.77 31.26 146.83 31.21C146.89 31.15 146.93 31.08 146.96 31C146.99 30.93 147 30.85 147 30.77L147 28.56C147 27.33 146.28 26.62 145.02 26.62ZM140.38 31.41C140.46 31.41 140.54 31.39 140.62 31.36C140.7 31.33 140.77 31.28 140.83 31.22C140.88 31.16 140.93 31.09 140.96 31.01C140.99 30.94 141 30.85 141 30.77L141 27.77L141.98 27.77C142.05 27.78 142.12 27.77 142.19 27.74C142.26 27.72 142.32 27.68 142.37 27.63C142.42 27.58 142.46 27.52 142.48 27.45C142.51 27.39 142.52 27.32 142.52 27.25C142.52 27.18 142.51 27.11 142.48 27.04C142.46 26.98 142.42 26.92 142.37 26.87C142.31 26.82 142.25 26.78 142.19 26.75C142.12 26.73 142.05 26.72 141.98 26.72L138.78 26.72C138.71 26.72 138.64 26.73 138.58 26.76C138.51 26.78 138.45 26.82 138.4 26.87C138.35 26.92 138.31 26.98 138.28 27.04C138.26 27.11 138.25 27.18 138.25 27.25C138.24 27.32 138.26 27.39 138.28 27.45C138.31 27.52 138.35 27.58 138.4 27.62C138.45 27.67 138.51 27.71 138.58 27.74C138.64 27.76 138.71 27.78 138.78 27.77L139.76 27.77L139.76 30.77C139.76 30.85 139.77 30.94 139.81 31.01C139.84 31.09 139.88 31.16 139.94 31.22C140 31.28 140.07 31.32 140.15 31.35C140.23 31.38 140.31 31.4 140.4 31.4L140.38 31.41ZM135.41 30.27C135.25 30.27 135.09 30.24 134.94 30.17C134.79 30.11 134.66 30.01 134.55 29.89C134.45 29.78 134.36 29.63 134.31 29.48C134.26 29.33 134.24 29.17 134.26 29.01C134.24 28.85 134.26 28.69 134.31 28.53C134.36 28.38 134.44 28.24 134.55 28.12C134.66 28 134.79 27.91 134.94 27.85C135.09 27.78 135.25 27.75 135.41 27.75C135.73 27.77 136.03 27.91 136.26 28.15C136.48 28.38 136.6 28.69 136.6 29.01C136.6 29.34 136.48 29.65 136.26 29.88C136.03 30.11 135.73 30.25 135.41 30.27ZM135.64 26.63C135.38 26.62 135.12 26.66 134.88 26.76C134.64 26.86 134.42 27.02 134.25 27.21C134.25 27.13 134.23 27.05 134.2 26.98C134.17 26.91 134.13 26.84 134.07 26.79C134.01 26.73 133.95 26.69 133.87 26.66C133.8 26.63 133.72 26.62 133.64 26.62C133.56 26.62 133.48 26.63 133.41 26.66C133.33 26.69 133.26 26.73 133.2 26.79C133.14 26.85 133.1 26.91 133.07 26.99C133.03 27.06 133.02 27.15 133.02 27.23L133.02 32.43C133.02 32.59 133.08 32.75 133.2 32.87C133.32 32.98 133.48 33.05 133.64 33.05C133.81 33.05 133.97 32.98 134.08 32.87C134.2 32.75 134.27 32.59 134.27 32.43L134.27 30.84C134.44 31.03 134.65 31.17 134.89 31.27C135.12 31.36 135.38 31.41 135.63 31.4C136.91 31.4 137.84 30.38 137.84 29C137.84 27.61 136.92 26.62 135.64 26.62L135.64 26.63ZM129.56 27.76C129.87 27.79 130.17 27.93 130.38 28.16C130.59 28.39 130.71 28.69 130.71 29.01C130.71 29.32 130.59 29.63 130.38 29.86C130.17 30.09 129.87 30.23 129.56 30.25C129.4 30.25 129.24 30.22 129.09 30.16C128.94 30.1 128.81 30.01 128.7 29.89C128.59 29.78 128.5 29.64 128.45 29.49C128.39 29.34 128.37 29.18 128.37 29.02C128.36 28.86 128.39 28.69 128.44 28.54C128.49 28.39 128.58 28.25 128.69 28.13C128.8 28.01 128.94 27.91 129.09 27.85C129.23 27.78 129.39 27.75 129.56 27.75L129.56 27.76ZM129.56 26.63C128.93 26.63 128.32 26.88 127.87 27.32C127.42 27.77 127.17 28.38 127.17 29.01C127.17 29.64 127.42 30.25 127.87 30.7C128.32 31.14 128.93 31.4 129.56 31.4C130.19 31.4 130.8 31.14 131.25 30.7C131.69 30.25 131.95 29.64 131.95 29.01C131.95 28.38 131.69 27.77 131.25 27.32C130.8 26.88 130.19 26.63 129.56 26.63ZM123.72 30.33L123.7 30.33L123.7 27.68L123.72 27.68C124.63 27.68 125.17 28.19 125.17 29.01C125.17 29.83 124.63 30.33 123.72 30.33ZM121.08 29.01C121.08 28.17 121.62 27.68 122.51 27.68L122.53 27.68L122.53 30.33L122.51 30.33C121.62 30.33 121.08 29.84 121.08 29.01ZM126.39 29.01C126.39 27.59 125.34 26.64 123.74 26.63L123.74 24.9C123.75 24.82 123.73 24.74 123.7 24.66C123.67 24.58 123.63 24.51 123.57 24.45C123.51 24.39 123.44 24.34 123.36 24.31C123.29 24.28 123.2 24.27 123.12 24.27C123.04 24.27 122.96 24.28 122.88 24.31C122.8 24.35 122.73 24.39 122.67 24.45C122.62 24.51 122.57 24.58 122.54 24.66C122.51 24.74 122.49 24.82 122.5 24.9L122.5 26.63C120.92 26.64 119.85 27.59 119.85 29.01C119.85 30.43 120.92 31.39 122.5 31.41L122.5 32.43C122.49 32.51 122.51 32.6 122.54 32.67C122.57 32.75 122.62 32.82 122.67 32.88C122.73 32.94 122.8 32.99 122.88 33.02C122.96 33.05 123.04 33.07 123.12 33.07C123.2 33.07 123.29 33.05 123.36 33.02C123.44 32.99 123.51 32.94 123.57 32.88C123.63 32.82 123.67 32.75 123.7 32.67C123.73 32.6 123.75 32.51 123.74 32.43L123.74 31.41C125.33 31.38 126.38 30.42 126.38 29L126.39 29.01ZM114.34 31.41C114.43 31.41 114.51 31.39 114.58 31.36C114.66 31.33 114.73 31.28 114.79 31.22C114.85 31.16 114.89 31.09 114.92 31.01C114.95 30.93 114.97 30.85 114.96 30.77L114.96 28.96L115.9 30.14C115.94 30.19 116 30.23 116.06 30.26C116.13 30.28 116.2 30.3 116.26 30.3C116.33 30.3 116.4 30.28 116.47 30.26C116.53 30.23 116.59 30.19 116.63 30.14L117.57 28.96L117.57 30.76C117.57 30.92 117.63 31.08 117.75 31.2C117.87 31.32 118.02 31.38 118.19 31.38C118.36 31.38 118.51 31.32 118.63 31.2C118.75 31.08 118.81 30.92 118.81 30.76L118.81 27.25C118.82 27.16 118.8 27.08 118.77 27C118.74 26.93 118.69 26.86 118.63 26.8C118.57 26.74 118.5 26.69 118.43 26.66C118.35 26.63 118.27 26.61 118.18 26.62C118.08 26.62 117.99 26.64 117.9 26.69C117.81 26.73 117.74 26.8 117.68 26.87L116.25 28.74L114.85 26.86C114.79 26.78 114.71 26.72 114.63 26.67C114.54 26.63 114.44 26.6 114.34 26.6C114.26 26.6 114.18 26.62 114.1 26.65C114.02 26.68 113.95 26.72 113.9 26.78C113.84 26.84 113.79 26.91 113.76 26.99C113.73 27.07 113.71 27.15 113.72 27.23L113.72 30.74C113.71 30.83 113.72 30.91 113.75 30.99C113.78 31.07 113.83 31.14 113.89 31.21C113.95 31.27 114.02 31.31 114.1 31.35C114.17 31.38 114.26 31.4 114.34 31.4L114.34 31.41ZM110.24 27.76C110.58 27.76 110.89 27.89 111.13 28.13C111.36 28.36 111.49 28.68 111.49 29.01C111.49 29.34 111.36 29.65 111.13 29.89C110.89 30.12 110.58 30.25 110.24 30.25C110.08 30.25 109.93 30.22 109.78 30.16C109.63 30.1 109.5 30.01 109.39 29.89C109.28 29.78 109.19 29.64 109.13 29.49C109.08 29.34 109.06 29.18 109.06 29.02C109.05 28.86 109.07 28.69 109.13 28.54C109.18 28.39 109.27 28.25 109.38 28.13C109.49 28.01 109.62 27.91 109.77 27.85C109.92 27.78 110.08 27.75 110.24 27.75L110.24 27.76ZM110.24 26.63C109.61 26.63 109 26.88 108.56 27.32C108.11 27.77 107.86 28.38 107.86 29.01C107.86 29.64 108.11 30.25 108.56 30.7C109 31.14 109.61 31.4 110.24 31.4C110.88 31.4 111.48 31.14 111.93 30.7C112.38 30.25 112.63 29.64 112.63 29.01C112.63 28.38 112.38 27.77 111.93 27.32C111.48 26.88 110.88 26.63 110.24 26.63ZM103.52 26.63C103.44 26.62 103.36 26.64 103.28 26.67C103.2 26.7 103.13 26.75 103.07 26.81C103.02 26.87 102.97 26.94 102.94 27.01C102.91 27.09 102.89 27.17 102.9 27.26L102.9 30.77C102.9 30.93 102.96 31.09 103.08 31.21C103.2 31.33 103.35 31.39 103.52 31.39C103.69 31.39 103.84 31.33 103.96 31.21C104.08 31.09 104.14 30.93 104.14 30.77L104.14 27.26C104.15 27.17 104.14 27.09 104.11 27.01C104.08 26.93 104.03 26.85 103.97 26.79C103.91 26.73 103.84 26.69 103.76 26.66C103.68 26.62 103.59 26.61 103.51 26.62L103.52 26.63ZM106.95 30.44L105.67 28.84L106.83 27.6C106.89 27.54 106.93 27.48 106.96 27.4C107 27.33 107.01 27.25 107.01 27.17C107.01 27.1 107 27.02 106.97 26.96C106.94 26.89 106.9 26.82 106.84 26.77C106.79 26.72 106.73 26.68 106.66 26.65C106.59 26.62 106.52 26.61 106.44 26.61C106.36 26.61 106.28 26.62 106.21 26.65C106.14 26.68 106.07 26.73 106.02 26.79L104.57 28.35C104.44 28.47 104.36 28.64 104.35 28.82C104.36 28.98 104.42 29.14 104.53 29.26L106.09 31.19C106.14 31.25 106.21 31.31 106.28 31.34C106.36 31.38 106.44 31.39 106.53 31.39C106.6 31.39 106.68 31.37 106.75 31.35C106.82 31.32 106.88 31.28 106.93 31.22C106.99 31.17 107.03 31.11 107.06 31.04C107.08 30.97 107.1 30.89 107.1 30.82C107.09 30.68 107.04 30.54 106.95 30.43L106.95 30.44ZM97.73 29.08L96.92 29.08C96.83 29.09 96.74 29.08 96.65 29.05C96.56 29.02 96.48 28.98 96.41 28.91C96.34 28.85 96.28 28.77 96.24 28.69C96.21 28.6 96.19 28.51 96.19 28.42C96.19 28.03 96.47 27.78 96.92 27.78L97.73 27.78L97.73 29.08ZM98.34 26.73L96.83 26.73C95.68 26.73 94.91 27.41 94.91 28.44C94.91 28.68 94.96 28.92 95.05 29.14C95.15 29.36 95.3 29.55 95.49 29.71L94.93 30.33C94.8 30.44 94.72 30.61 94.71 30.78C94.71 30.94 94.78 31.1 94.89 31.22C95.01 31.34 95.16 31.4 95.33 31.41C95.42 31.41 95.51 31.39 95.59 31.35C95.68 31.31 95.75 31.25 95.81 31.17L96.68 30.13L97.73 30.13L97.73 30.77C97.73 30.93 97.79 31.09 97.91 31.21C98.03 31.33 98.19 31.39 98.35 31.39C98.52 31.39 98.68 31.33 98.79 31.21C98.91 31.09 98.98 30.93 98.98 30.77L98.98 27.37C98.98 27.28 98.96 27.2 98.93 27.12C98.9 27.04 98.86 26.97 98.8 26.91C98.74 26.85 98.67 26.8 98.59 26.77C98.51 26.73 98.43 26.72 98.34 26.72L98.34 26.73ZM93.03 26.63C92.92 26.63 92.81 26.66 92.71 26.71C92.62 26.77 92.54 26.84 92.48 26.93L90.6 29.27L90.6 27.25C90.6 27.08 90.53 26.92 90.42 26.81C90.3 26.69 90.14 26.62 89.97 26.62C89.81 26.62 89.65 26.69 89.53 26.81C89.42 26.92 89.35 27.08 89.35 27.25L89.35 30.76C89.35 30.84 89.36 30.92 89.39 31C89.42 31.08 89.47 31.15 89.53 31.21C89.58 31.27 89.65 31.31 89.73 31.35C89.81 31.38 89.89 31.4 89.97 31.4C90.08 31.39 90.19 31.36 90.28 31.31C90.38 31.26 90.46 31.18 90.52 31.09L92.41 28.76L92.41 30.76C92.41 30.92 92.47 31.08 92.59 31.2C92.7 31.31 92.86 31.38 93.03 31.38C93.19 31.38 93.35 31.31 93.46 31.2C93.58 31.08 93.64 30.92 93.64 30.76L93.64 27.25C93.65 27.16 93.63 27.08 93.6 27.01C93.57 26.93 93.53 26.86 93.47 26.8C93.42 26.74 93.35 26.7 93.27 26.66C93.2 26.63 93.12 26.62 93.04 26.62L93.03 26.63ZM85.88 30.27C85.72 30.27 85.56 30.24 85.42 30.17C85.27 30.11 85.14 30.01 85.03 29.89C84.92 29.78 84.84 29.63 84.78 29.48C84.73 29.33 84.71 29.17 84.73 29.01C84.71 28.85 84.73 28.69 84.78 28.53C84.83 28.38 84.92 28.24 85.03 28.12C85.14 28 85.27 27.91 85.42 27.85C85.56 27.78 85.72 27.75 85.88 27.75C86.21 27.77 86.51 27.91 86.73 28.15C86.95 28.38 87.08 28.69 87.08 29.01C87.08 29.34 86.95 29.65 86.73 29.88C86.51 30.11 86.21 30.25 85.88 30.27ZM86.12 26.63C85.86 26.62 85.6 26.66 85.35 26.76C85.11 26.86 84.9 27.02 84.72 27.21C84.72 27.05 84.66 26.9 84.54 26.79C84.43 26.68 84.28 26.62 84.12 26.62C84.04 26.62 83.96 26.63 83.88 26.66C83.81 26.69 83.74 26.74 83.68 26.8C83.62 26.85 83.58 26.92 83.54 27C83.51 27.08 83.5 27.16 83.5 27.24L83.5 32.44C83.5 32.6 83.57 32.76 83.68 32.88C83.8 33 83.96 33.06 84.12 33.06C84.29 33.06 84.45 33 84.56 32.88C84.68 32.76 84.75 32.6 84.75 32.44L84.75 30.85C84.92 31.04 85.14 31.18 85.37 31.28C85.61 31.37 85.86 31.42 86.12 31.41C87.4 31.41 88.33 30.39 88.33 29.01C88.33 27.63 87.4 26.62 86.12 26.62L86.12 26.63ZM80.03 27.76C80.36 27.76 80.68 27.89 80.91 28.13C81.15 28.36 81.28 28.68 81.28 29.01C81.28 29.34 81.15 29.65 80.91 29.89C80.68 30.12 80.36 30.25 80.03 30.25C79.87 30.25 79.71 30.22 79.56 30.16C79.42 30.1 79.28 30.01 79.17 29.89C79.06 29.78 78.98 29.64 78.92 29.49C78.86 29.34 78.84 29.18 78.85 29.02C78.84 28.86 78.86 28.69 78.91 28.54C78.97 28.38 79.05 28.24 79.16 28.12C79.28 28 79.41 27.91 79.56 27.85C79.71 27.78 79.87 27.75 80.04 27.75L80.03 27.76ZM80.03 26.63C79.4 26.63 78.79 26.88 78.34 27.32C77.89 27.77 77.64 28.38 77.64 29.01C77.64 29.64 77.89 30.25 78.34 30.7C78.79 31.14 79.4 31.4 80.03 31.4C80.66 31.4 81.27 31.14 81.72 30.7C82.16 30.25 82.42 29.64 82.42 29.01C82.42 28.38 82.16 27.77 81.72 27.32C81.27 26.88 80.66 26.63 80.03 26.63ZM75.05 31.42C75.14 31.42 75.22 31.4 75.3 31.37C75.37 31.34 75.44 31.29 75.5 31.23C75.56 31.17 75.6 31.1 75.63 31.02C75.66 30.95 75.68 30.86 75.67 30.78L75.67 27.78L76.66 27.78C76.73 27.79 76.8 27.78 76.87 27.75C76.93 27.72 76.99 27.69 77.04 27.64C77.09 27.59 77.13 27.53 77.16 27.46C77.19 27.4 77.2 27.33 77.2 27.26C77.2 27.19 77.19 27.12 77.16 27.05C77.13 26.99 77.09 26.93 77.04 26.88C76.99 26.83 76.93 26.79 76.87 26.76C76.8 26.74 76.73 26.73 76.66 26.73L73.46 26.73C73.32 26.73 73.19 26.78 73.09 26.87C72.99 26.97 72.94 27.09 72.93 27.23C72.93 27.3 72.94 27.37 72.97 27.43C72.99 27.5 73.03 27.56 73.08 27.61C73.13 27.66 73.19 27.69 73.26 27.72C73.32 27.74 73.39 27.76 73.46 27.75L74.45 27.75L74.45 30.75C74.44 30.83 74.45 30.92 74.48 31C74.51 31.07 74.56 31.14 74.61 31.2C74.67 31.27 74.74 31.31 74.82 31.35C74.89 31.38 74.98 31.4 75.06 31.4L75.05 31.42ZM71.61 26.63C71.5 26.63 71.39 26.66 71.3 26.71C71.2 26.76 71.12 26.84 71.06 26.93L69.2 29.27L69.2 27.25C69.2 27.08 69.14 26.92 69.02 26.81C68.9 26.69 68.75 26.62 68.58 26.62C68.41 26.62 68.26 26.69 68.14 26.81C68.02 26.92 67.96 27.08 67.96 27.25L67.96 30.76C67.95 30.84 67.97 30.92 68 31C68.03 31.08 68.07 31.15 68.13 31.21C68.19 31.27 68.26 31.31 68.33 31.35C68.41 31.38 68.49 31.4 68.57 31.4C68.68 31.39 68.79 31.36 68.89 31.31C68.99 31.26 69.07 31.18 69.13 31.09L71.01 28.76L71.01 30.76C71.01 30.92 71.08 31.08 71.19 31.2C71.31 31.31 71.47 31.38 71.63 31.38C71.79 31.38 71.95 31.31 72.07 31.2C72.18 31.08 72.25 30.92 72.25 30.76L72.25 27.25C72.25 27.16 72.24 27.08 72.21 27C72.18 26.92 72.13 26.85 72.07 26.79C72.01 26.74 71.94 26.69 71.86 26.66C71.79 26.63 71.7 26.61 71.62 26.62L71.61 26.63ZM64.47 30.27C64.31 30.27 64.15 30.24 64 30.17C63.85 30.11 63.72 30.01 63.61 29.89C63.5 29.78 63.42 29.63 63.37 29.48C63.32 29.33 63.3 29.17 63.31 29.01C63.3 28.85 63.32 28.69 63.37 28.53C63.42 28.38 63.5 28.24 63.61 28.12C63.72 28 63.85 27.91 64 27.85C64.15 27.78 64.31 27.75 64.47 27.75C64.79 27.77 65.09 27.91 65.31 28.15C65.54 28.38 65.66 28.69 65.66 29.01C65.66 29.34 65.54 29.65 65.31 29.88C65.09 30.11 64.79 30.25 64.47 30.27ZM64.7 26.63C64.43 26.62 64.17 26.66 63.93 26.76C63.69 26.86 63.48 27.02 63.3 27.21C63.3 27.13 63.29 27.05 63.25 26.98C63.22 26.91 63.18 26.85 63.12 26.79C63.07 26.74 63 26.69 62.93 26.66C62.86 26.63 62.78 26.62 62.7 26.62C62.62 26.62 62.54 26.63 62.46 26.66C62.39 26.69 62.32 26.74 62.26 26.8C62.2 26.85 62.16 26.92 62.13 27C62.1 27.08 62.08 27.16 62.08 27.24L62.08 32.44C62.08 32.6 62.15 32.76 62.27 32.88C62.38 33 62.54 33.06 62.71 33.06C62.87 33.06 63.03 33 63.15 32.88C63.27 32.76 63.33 32.6 63.33 32.44L63.33 30.85C63.51 31.04 63.72 31.18 63.95 31.28C64.19 31.37 64.44 31.42 64.7 31.41C65.98 31.41 66.91 30.39 66.91 29.01C66.91 27.63 65.99 26.62 64.7 26.62L64.7 26.63ZM58.61 30.27C58.45 30.27 58.29 30.24 58.14 30.17C58 30.11 57.86 30.01 57.76 29.89C57.65 29.78 57.56 29.63 57.51 29.48C57.46 29.33 57.44 29.17 57.46 29.01C57.44 28.85 57.46 28.69 57.51 28.53C57.56 28.38 57.65 28.24 57.76 28.12C57.86 28 58 27.91 58.14 27.85C58.29 27.78 58.45 27.75 58.61 27.75C58.94 27.77 59.24 27.91 59.46 28.15C59.68 28.38 59.81 28.69 59.81 29.01C59.81 29.34 59.68 29.65 59.46 29.88C59.24 30.11 58.94 30.25 58.61 30.27ZM58.85 26.63C58.58 26.62 58.32 26.66 58.08 26.76C57.84 26.86 57.63 27.02 57.45 27.21C57.45 27.05 57.38 26.9 57.27 26.79C57.16 26.68 57.01 26.62 56.85 26.62C56.77 26.62 56.69 26.63 56.61 26.66C56.54 26.69 56.47 26.74 56.41 26.8C56.35 26.85 56.3 26.92 56.27 27C56.24 27.08 56.23 27.16 56.23 27.24L56.23 32.44C56.23 32.6 56.3 32.76 56.41 32.88C56.53 33 56.69 33.06 56.85 33.06C57.02 33.06 57.18 33 57.29 32.88C57.41 32.76 57.48 32.6 57.48 32.44L57.48 30.85C57.65 31.04 57.87 31.18 58.1 31.28C58.34 31.37 58.59 31.42 58.85 31.41C60.13 31.41 61.06 30.39 61.06 29.01C61.06 27.63 60.14 26.62 58.85 26.62L58.85 26.63ZM53.02 27.63C53.14 27.62 53.27 27.64 53.39 27.68C53.51 27.73 53.62 27.79 53.71 27.88C53.8 27.97 53.88 28.07 53.93 28.19C53.98 28.3 54.01 28.43 54.01 28.55L51.93 28.55C51.97 28.29 52.1 28.06 52.3 27.89C52.51 27.71 52.76 27.62 53.02 27.62L53.02 27.63ZM53.05 26.63C52.73 26.62 52.42 26.68 52.13 26.8C51.84 26.92 51.57 27.09 51.35 27.32C51.13 27.54 50.96 27.81 50.84 28.1C50.72 28.39 50.67 28.7 50.67 29.02C50.67 29.34 50.74 29.66 50.87 29.96C50.99 30.26 51.18 30.53 51.41 30.75C51.65 30.97 51.92 31.15 52.23 31.26C52.53 31.37 52.85 31.42 53.18 31.41C53.69 31.41 54.19 31.26 54.63 30.98C54.72 30.94 54.8 30.86 54.85 30.78C54.91 30.69 54.94 30.59 54.94 30.48C54.94 30.42 54.93 30.35 54.9 30.29C54.88 30.23 54.84 30.17 54.79 30.12C54.74 30.08 54.69 30.04 54.62 30.02C54.56 29.99 54.5 29.98 54.43 29.98C54.34 29.99 54.24 30.02 54.16 30.07C53.88 30.24 53.55 30.33 53.21 30.33C52.93 30.36 52.64 30.29 52.4 30.12C52.17 29.95 52 29.71 51.93 29.43L54.53 29.43C54.62 29.44 54.71 29.43 54.79 29.4C54.88 29.37 54.95 29.33 55.02 29.27C55.08 29.21 55.13 29.13 55.17 29.05C55.2 28.97 55.22 28.89 55.22 28.8L55.22 28.77C55.22 28.48 55.17 28.2 55.07 27.93C54.96 27.67 54.8 27.43 54.6 27.22C54.4 27.02 54.16 26.87 53.89 26.76C53.62 26.66 53.34 26.61 53.05 26.62L53.05 26.63ZM48.14 31.42C48.23 31.42 48.31 31.4 48.39 31.37C48.46 31.34 48.53 31.29 48.59 31.23C48.65 31.17 48.69 31.1 48.72 31.02C48.75 30.95 48.77 30.86 48.76 30.78L48.76 27.78L49.75 27.78C49.82 27.79 49.89 27.78 49.96 27.75C50.02 27.72 50.08 27.69 50.14 27.64C50.18 27.59 50.22 27.53 50.25 27.46C50.28 27.4 50.29 27.33 50.29 27.26C50.29 27.19 50.28 27.12 50.25 27.05C50.22 26.99 50.18 26.93 50.13 26.88C50.08 26.83 50.02 26.79 49.96 26.76C49.89 26.74 49.82 26.73 49.75 26.73L46.55 26.73C46.48 26.73 46.41 26.74 46.35 26.77C46.28 26.79 46.23 26.83 46.18 26.88C46.13 26.93 46.09 26.99 46.06 27.05C46.03 27.12 46.02 27.19 46.02 27.26C46.02 27.33 46.03 27.4 46.06 27.46C46.08 27.53 46.12 27.59 46.17 27.64C46.22 27.68 46.28 27.72 46.35 27.75C46.41 27.77 46.48 27.79 46.55 27.78L47.53 27.78L47.53 30.78C47.53 30.94 47.6 31.1 47.71 31.22C47.83 31.33 47.99 31.4 48.15 31.4L48.14 31.42Z" fill="#C71157" fill-opacity="1.000000" fill-rule="nonzero"/>
	</g>
</svg>
